<?xml version="1.0" encoding="UTF-8" standalone="no"?>
<!-- Generator: Adobe Illustrator 16.0.0, SVG Export Plug-In . SVG Version: 6.00 Build 0)  -->

<svg
   xmlns:dc="http://purl.org/dc/elements/1.1/"
   xmlns:cc="http://creativecommons.org/ns#"
   xmlns:rdf="http://www.w3.org/1999/02/22-rdf-syntax-ns#"
   xmlns:svg="http://www.w3.org/2000/svg"
   xmlns="http://www.w3.org/2000/svg"
   xmlns:sodipodi="http://sodipodi.sourceforge.net/DTD/sodipodi-0.dtd"
   xmlns:inkscape="http://www.inkscape.org/namespaces/inkscape"
   version="1.1"
   id="Capa_1"
   x="0px"
   y="0px"
   width="438.549px"
   height="438.549px"
   viewBox="0 0 438.549 438.549"
   style="enable-background:new 0 0 438.549 438.549;"
   xml:space="preserve"
   sodipodi:docname="github.svg"
   inkscape:version="0.92.3 (2405546, 2018-03-11)"><metadata
   id="metadata128"><rdf:RDF><cc:Work
       rdf:about=""><dc:format>image/svg+xml</dc:format><dc:type
         rdf:resource="http://purl.org/dc/dcmitype/StillImage" /><dc:title></dc:title></cc:Work></rdf:RDF></metadata><defs
   id="defs126" /><sodipodi:namedview
   pagecolor="#ffffff"
   bordercolor="#666666"
   borderopacity="1"
   objecttolerance="10"
   gridtolerance="10"
   guidetolerance="10"
   inkscape:pageopacity="0"
   inkscape:pageshadow="2"
   inkscape:window-width="1280"
   inkscape:window-height="698"
   id="namedview124"
   showgrid="false"
   inkscape:zoom="1.1788876"
   inkscape:cx="219.27451"
   inkscape:cy="219.27451"
   inkscape:window-x="0"
   inkscape:window-y="27"
   inkscape:window-maximized="1"
   inkscape:current-layer="Capa_1" />
<g
   id="g91">
	<path
   d="M409.132,114.573c-19.608-33.596-46.205-60.194-79.798-79.8C295.736,15.166,259.057,5.365,219.271,5.365   c-39.781,0-76.472,9.804-110.063,29.408c-33.596,19.605-60.192,46.204-79.8,79.8C9.803,148.168,0,184.854,0,224.63   c0,47.78,13.94,90.745,41.827,128.906c27.884,38.164,63.906,64.572,108.063,79.227c5.14,0.954,8.945,0.283,11.419-1.996   c2.475-2.282,3.711-5.14,3.711-8.562c0-0.571-0.049-5.708-0.144-15.417c-0.098-9.709-0.144-18.179-0.144-25.406l-6.567,1.136   c-4.187,0.767-9.469,1.092-15.846,1c-6.374-0.089-12.991-0.757-19.842-1.999c-6.854-1.231-13.229-4.086-19.13-8.559   c-5.898-4.473-10.085-10.328-12.56-17.556l-2.855-6.57c-1.903-4.374-4.899-9.233-8.992-14.559   c-4.093-5.331-8.232-8.945-12.419-10.848l-1.999-1.431c-1.332-0.951-2.568-2.098-3.711-3.429c-1.142-1.331-1.997-2.663-2.568-3.997   c-0.572-1.335-0.098-2.43,1.427-3.289c1.525-0.859,4.281-1.276,8.28-1.276l5.708,0.853c3.807,0.763,8.516,3.042,14.133,6.851   c5.614,3.806,10.229,8.754,13.846,14.842c4.38,7.806,9.657,13.754,15.846,17.847c6.184,4.093,12.419,6.136,18.699,6.136   c6.28,0,11.704-0.476,16.274-1.423c4.565-0.952,8.848-2.383,12.847-4.285c1.713-12.758,6.377-22.559,13.988-29.41   c-10.848-1.14-20.601-2.857-29.264-5.14c-8.658-2.286-17.605-5.996-26.835-11.14c-9.235-5.137-16.896-11.516-22.985-19.126   c-6.09-7.614-11.088-17.61-14.987-29.979c-3.901-12.374-5.852-26.648-5.852-42.826c0-23.035,7.52-42.637,22.557-58.817   c-7.044-17.318-6.379-36.732,1.997-58.24c5.52-1.715,13.706-0.428,24.554,3.853c10.85,4.283,18.794,7.952,23.84,10.994   c5.046,3.041,9.089,5.618,12.135,7.708c17.705-4.947,35.976-7.421,54.818-7.421s37.117,2.474,54.823,7.421l10.849-6.849   c7.419-4.57,16.18-8.758,26.262-12.565c10.088-3.805,17.802-4.853,23.134-3.138c8.562,21.509,9.325,40.922,2.279,58.24   c15.036,16.18,22.559,35.787,22.559,58.817c0,16.178-1.958,30.497-5.853,42.966c-3.9,12.471-8.941,22.457-15.125,29.979   c-6.191,7.521-13.901,13.85-23.131,18.986c-9.232,5.14-18.182,8.85-26.84,11.136c-8.662,2.286-18.415,4.004-29.263,5.146   c9.894,8.562,14.842,22.077,14.842,40.539v60.237c0,3.422,1.19,6.279,3.572,8.562c2.379,2.279,6.136,2.95,11.276,1.995   c44.163-14.653,80.185-41.062,108.068-79.226c27.88-38.161,41.825-81.126,41.825-128.906   C438.536,184.851,428.728,148.168,409.132,114.573z"
   id="path89" />
</g>
<g
   id="g93">
</g>
<g
   id="g95">
</g>
<g
   id="g97">
</g>
<g
   id="g99">
</g>
<g
   id="g101">
</g>
<g
   id="g103">
</g>
<g
   id="g105">
</g>
<g
   id="g107">
</g>
<g
   id="g109">
</g>
<g
   id="g111">
</g>
<g
   id="g113">
</g>
<g
   id="g115">
</g>
<g
   id="g117">
</g>
<g
   id="g119">
</g>
<g
   id="g121">
</g>
<path
   style="fill:#ffffff;stroke-width:0.8482573"
   d="M 141.06518,429.10015 C 113.97721,418.84011 89.746137,403.57262 69.092337,383.75159 20.720396,337.33002 -3.5824631,275.54643 0.94106977,210.49504 3.0219009,180.57132 9.1847347,156.61261 21.396845,130.97092 53.065792,64.475849 115.03204,18.717551 188.14346,7.8387166 c 14.57816,-2.1692016 48.58275,-2.1473483 62.77104,0.040341 43.91834,6.7717544 81.8623,24.6646034 115.14613,54.2982864 33.27975,29.630067 58.16832,72.549886 67.14065,115.782666 3.7732,18.18101 4.32982,24.19013 4.32982,46.74334 0,21.94483 -0.46949,27.30333 -3.93902,44.95764 -12.41274,63.16085 -56.81335,120.95528 -115.45489,150.28283 -21.85684,10.93095 -34.70201,14.59862 -39.45902,11.26668 -3.96216,-2.77521 -3.98619,-3.00763 -4.51004,-43.64175 -0.41507,-32.19653 -0.7323,-39.48509 -1.91332,-43.95988 -1.97078,-7.46709 -5.06797,-13.67258 -9.1237,-18.28014 -3.36134,-3.81868 -3.39747,-3.92405 -1.34565,-3.92405 1.15965,0 6.44068,-0.74429 11.73563,-1.65399 31.52854,-5.41672 56.43093,-19.53454 69.15688,-39.20687 14.98022,-23.15703 20.97986,-62.74559 13.8265,-91.23391 -2.17741,-8.67157 -8.918,-22.13191 -14.68007,-29.31474 l -4.6161,-5.75432 1.57026,-5.04525 c 2.13578,-6.86226 3.44912,-17.99641 2.85012,-24.16248 -1.21923,-12.55056 -5.3955,-27.866123 -7.97504,-29.246645 -6.43689,-3.444925 -29.91081,4.299175 -50.21586,16.566325 l -9.41609,5.68866 -8.16056,-1.84331 c -14.08009,-3.18041 -23.77125,-4.36624 -39.97022,-4.89079 -17.84488,-0.57786 -30.48131,0.42294 -46.65415,3.69496 -5.83177,1.17987 -11.5575,2.32076 -12.72386,2.53535 -1.53818,0.28298 -4.61439,-1.11226 -11.19992,-5.07978 -9.07822,-5.46927 -23.86211,-12.20988 -33.20214,-15.138266 -6.89486,-2.16175 -15.84166,-2.878731 -17.66198,-1.415402 -1.77499,1.426887 -5.285947,12.627688 -6.674095,21.291958 -1.457985,9.10018 -0.656263,23.99872 1.690526,31.41526 l 1.824169,5.76492 -3.422277,4.08754 c -7.37648,8.81039 -13.285788,20.65373 -16.36353,32.7955 -1.682294,6.6367 -1.916813,9.66787 -1.89843,24.53725 0.02446,19.7881 1.182746,27.60295 6.429856,43.38178 4.379926,13.1711 9.739843,22.64379 17.461711,30.86045 15.56518,16.56256 40.9291,27.86595 69.56486,31.00148 l 5.27638,0.57774 -2.99862,3.49839 c -3.94273,4.59985 -7.67076,12.53191 -9.31783,19.82536 l -1.32822,5.88153 -5.2401,1.81283 c -2.88204,0.99705 -7.72124,2.20013 -10.75376,2.67351 -20.48495,3.19773 -33.6116,-2.8876 -45.47486,-21.08153 -2.62148,-4.02041 -6.344973,-8.95797 -8.274419,-10.97234 -4.960702,-5.17906 -14.460045,-10.87182 -20.89047,-12.51922 -8.305581,-2.12779 -16.123779,-0.75779 -16.123779,2.82541 0,2.61759 3.59994,6.96488 8.301379,10.02476 9.716805,6.32407 15.657703,13.71667 21.865669,27.20871 6.328178,13.75329 6.544237,14.11406 11.392664,19.02342 5.998056,6.07342 14.945846,10.56991 24.627966,12.37618 8.204,1.53051 29.57343,1.84642 35.73931,0.52833 l 3.95327,-0.84508 0.57648,9.41918 c 0.31706,5.18056 0.44667,15.14493 0.28802,22.14306 -0.25226,11.12648 -0.50145,13.00943 -1.98498,14.99857 -3.85524,5.16914 -9.28993,5.33521 -21.63057,0.66098 z"
   id="path130"
   inkscape:connector-curvature="0" /></svg>